<svg xmlns="http://www.w3.org/2000/svg" width="113.942" height="20.794" viewBox="0 0 113.942 20.794">
  <path id="Path_28731" data-name="Path 28731" d="M11.432,12.915A5.778,5.778,0,0,0,6.715,15,8.723,8.723,0,0,0,5,20.705a9.1,9.1,0,0,0,1.586,5.666A5.687,5.687,0,0,0,11.4,28.439a12.758,12.758,0,0,0,2.507-.241,22.893,22.893,0,0,0,2.451-.637V30.2a12.932,12.932,0,0,1-2.436.666,17.374,17.374,0,0,1-2.89.212,9.563,9.563,0,0,1-5.17-1.289,7.8,7.8,0,0,1-3.06-3.626A13.786,13.786,0,0,1,1.8,20.677a12.358,12.358,0,0,1,1.119-5.4,8.564,8.564,0,0,1,3.272-3.669A9.835,9.835,0,0,1,11.46,10.28a13.673,13.673,0,0,1,2.989.326,12.075,12.075,0,0,1,2.677.921l-1.133,2.55a18.073,18.073,0,0,0-2.125-.807A8.126,8.126,0,0,0,11.432,12.915ZM32.906,30.791l-2.153-5.836H22.934l-2.153,5.836H17.608l7.677-20.312h3.173l7.649,20.312Zm-3-8.5L27.863,16.6q-.113-.312-.312-.935t-.4-1.3q-.2-.68-.312-1.1-.227.878-.51,1.87T25.88,16.6l-2.04,5.694ZM44.068,10.563q3.881,0,5.737,1.445A5.219,5.219,0,0,1,51.66,16.4a5.515,5.515,0,0,1-.567,2.62,5.133,5.133,0,0,1-1.487,1.742,7.773,7.773,0,0,1-1.912,1.048l5.666,8.981H49.847L44.975,22.6H41.462v8.187H38.4V10.563Zm-.2,2.606H41.462v6.884h2.55a5.342,5.342,0,0,0,3.428-.892,3.243,3.243,0,0,0,1.077-2.649,2.881,2.881,0,0,0-1.133-2.578A6.377,6.377,0,0,0,43.87,13.17ZM67.3,30.791H55.91V10.563H67.3V13.17H58.969v5.779h7.819v2.578H58.969v6.629H67.3Zm15.355,0H71.265V10.563H82.653V13.17H74.324v5.779h7.819v2.578H74.324v6.629h8.329Zm9.632-20.227q3.881,0,5.737,1.445A5.219,5.219,0,0,1,99.878,16.4a5.515,5.515,0,0,1-.567,2.62,5.133,5.133,0,0,1-1.487,1.742,7.773,7.773,0,0,1-1.912,1.048l5.666,8.981H98.064L93.192,22.6H89.679v8.187h-3.06V10.563Zm-.2,2.606H89.679v6.884h2.55a5.342,5.342,0,0,0,3.428-.892,3.243,3.243,0,0,0,1.077-2.649A2.881,2.881,0,0,0,95.6,13.935,6.377,6.377,0,0,0,92.087,13.17Zm23.655,12.153a5.064,5.064,0,0,1-1.955,4.221,8.475,8.475,0,0,1-5.354,1.53,17.025,17.025,0,0,1-3.116-.269,9.347,9.347,0,0,1-2.465-.779v-2.89a17.738,17.738,0,0,0,2.663.921,11.965,11.965,0,0,0,3.116.411,4.935,4.935,0,0,0,3.06-.793,2.554,2.554,0,0,0,1.02-2.125,2.644,2.644,0,0,0-.453-1.572,4.281,4.281,0,0,0-1.459-1.19,22.124,22.124,0,0,0-2.621-1.176,13.747,13.747,0,0,1-2.635-1.331,5.605,5.605,0,0,1-1.813-1.9,5.49,5.49,0,0,1-.652-2.776,4.686,4.686,0,0,1,1.813-3.91,7.512,7.512,0,0,1,4.759-1.416,12.91,12.91,0,0,1,3.045.34,17.424,17.424,0,0,1,2.677.878l-.963,2.521a17.84,17.84,0,0,0-2.366-.793,9.853,9.853,0,0,0-2.479-.312,3.872,3.872,0,0,0-2.55.737,2.394,2.394,0,0,0-.878,1.926,2.772,2.772,0,0,0,.425,1.572,3.855,3.855,0,0,0,1.36,1.162,19.987,19.987,0,0,0,2.465,1.119,18.5,18.5,0,0,1,2.9,1.431,5.328,5.328,0,0,1,1.827,1.813A5.163,5.163,0,0,1,115.742,25.323Z" transform="translate(-1.8 -10.28)" fill="#2b3337"/>
</svg>