<svg xmlns="http://www.w3.org/2000/svg" width="156.364" height="22.808"><defs><clipPath id="clip-path"><path id="Path_8457" data-name="Path 8457" d="M0-20.741h156.364v-22.808H0z" transform="translate(0 43.549)" fill="#67bf1b"/></clipPath></defs><g id="Group_4148" data-name="Group 4148" transform="translate(0 43.549)"><g id="Group_4006" data-name="Group 4006" transform="translate(0 -43.549)" clip-path="url(#clip-path)"><g id="Group_3997" data-name="Group 3997"><path id="Path_8448" data-name="Path 8448" d="M-17.809-15.951l-2.222-1.221a.6.6 0 00-.793.192 6.368 6.368 0 01-2.219 2 6.111 6.111 0 01-3.008.769 7.5 7.5 0 01-2.956-.578 7.058 7.058 0 01-2.351-1.611 7.516 7.516 0 01-1.563-2.5 8.756 8.756 0 01-.569-3.192 8.715 8.715 0 01.568-3.206 7.549 7.549 0 011.564-2.479 7.071 7.071 0 012.351-1.615 7.508 7.508 0 012.956-.578 6.023 6.023 0 013 .782 6.661 6.661 0 012.231 1.998.6.6 0 00.792.184l2.191-1.221a.605.605 0 00.3-.4.6.6 0 00-.1-.484 11.744 11.744 0 00-1.5-1.716 10.049 10.049 0 00-1.9-1.4 9.684 9.684 0 00-2.3-.935 10.542 10.542 0 00-2.707-.333 11.894 11.894 0 00-4.434.825 10.93 10.93 0 00-3.622 2.341 10.863 10.863 0 00-2.42 3.611 11.96 11.96 0 00-.876 4.631 11.953 11.953 0 00.876 4.631 10.849 10.849 0 002.42 3.611 10.907 10.907 0 003.61 2.336 11.889 11.889 0 004.435.826 9.524 9.524 0 005.026-1.262 11.928 11.928 0 003.412-3.116.6.6 0 00.1-.489.606.606 0 00-.3-.4" transform="translate(37.392 33.491)" fill="#fff"/></g><g id="Group_3998" data-name="Group 3998" transform="translate(21.775)"><path id="Path_8449" data-name="Path 8449" d="M-17.192-2.978a10.2 10.2 0 00-3.475-2.413 11.327 11.327 0 00-4.463-.862 11.314 11.314 0 00-4.463.863 10.19 10.19 0 00-3.475 2.412A10.992 10.992 0 00-35.3.647a12.6 12.6 0 00-.791 4.5 12.6 12.6 0 00.791 4.5 10.992 10.992 0 002.236 3.626 10.185 10.185 0 003.475 2.412 11.332 11.332 0 004.463.862 11.318 11.318 0 004.463-.863 10.188 10.188 0 003.475-2.412 11 11 0 002.236-3.626 12.609 12.609 0 00.791-4.5 12.6 12.6 0 00-.791-4.5 10.993 10.993 0 00-2.236-3.625m-7.942 16.008a7.09 7.09 0 01-2.928-.588 6.434 6.434 0 01-2.22-1.632 7.358 7.358 0 01-1.416-2.489 9.73 9.73 0 01-.5-3.169 9.864 9.864 0 01.5-3.185 7.183 7.183 0 011.413-2.485 6.555 6.555 0 012.222-1.619 7.1 7.1 0 012.929-.588 6.98 6.98 0 012.91.588 6.582 6.582 0 012.209 1.62A7.4 7.4 0 01-18.58 1.97a9.619 9.619 0 01.514 3.181 9.482 9.482 0 01-.513 3.163 7.6 7.6 0 01-1.434 2.495 6.477 6.477 0 01-2.206 1.632 6.973 6.973 0 01-2.91.588" transform="translate(36.096 6.253)" fill="#fff"/></g><g id="Group_3999" data-name="Group 3999" transform="translate(46.522 .344)"><path id="Path_8450" data-name="Path 8450" d="M-16.377 0h-2.6a.605.605 0 00-.605.605v8.378h-11V.605a.605.605 0 00-.6-.605h-2.6a.6.6 0 00-.6.605v20.878a.6.6 0 00.6.6h2.6a.605.605 0 00.605-.6V12.51h11v8.973a.6.6 0 00.605.6h2.6a.605.605 0 00.605-.6V.605a.605.605 0 00-.61-.605" transform="translate(34.385)" fill="#fff"/></g><g id="Group_4000" data-name="Group 4000" transform="translate(68.663 .344)"><path id="Path_8451" data-name="Path 8451" d="M-13.87-3.207a.605.605 0 00.605-.605v-2.317a.605.605 0 00-.605-.605h-14.647a.6.6 0 00-.6.605v20.878a.605.605 0 00.6.605h14.647a.606.606 0 00.605-.605v-2.317a.605.605 0 00-.605-.6h-11.444V5.839h10.741a.606.606 0 00.605-.605V2.917a.605.605 0 00-.605-.6h-10.741v-5.524z" transform="translate(29.122 6.734)" fill="#fff"/></g><g id="Group_4001" data-name="Group 4001" transform="translate(109.446 .344)"><path id="Path_8452" data-name="Path 8452" d="M-3.463-19.536v-20.878a.605.605 0 00-.605-.605h-2.6a.605.605 0 00-.605.605v20.877a.606.606 0 00.605.605h2.6a.605.605 0 00.605-.605" transform="translate(7.272 41.019)" fill="#fff"/></g><g id="Group_4002" data-name="Group 4002" transform="translate(116.219 .344)"><path id="Path_8453" data-name="Path 8453" d="M-15.8 0h-16.773a.6.6 0 00-.6.605v2.316a.6.6 0 00.6.605h6.48v17.957a.6.6 0 00.605.6h2.6a.6.6 0 00.6-.6V3.527h6.48a.605.605 0 00.605-.605V.605A.605.605 0 00-15.8 0" transform="translate(33.178)" fill="#fff"/></g><g id="Group_4003" data-name="Group 4003" transform="translate(136.125 .344)"><path id="Path_8454" data-name="Path 8454" d="M-18.341-.293a.606.606 0 00-.535-.322h-3.036a.605.605 0 00-.5.269L-28.391 8.6l-5.975-8.946a.605.605 0 00-.5-.269h-3.036a.605.605 0 00-.535.322.606.606 0 00.035.624l8.1 11.9v8.64a.605.605 0 00.605.605h2.627a.605.605 0 00.6-.605v-8.64l8.1-11.9a.606.606 0 00.035-.624" transform="translate(38.51 .615)" fill="#fff"/></g><g id="Group_4004" data-name="Group 4004" transform="translate(87.139 .344)"><path id="Path_8455" data-name="Path 8455" d="M-15.269-2.564l.621-2.1a.559.559 0 00-.536-.718h-8.706a8.016 8.016 0 00-8.144 8.56 7.932 7.932 0 007.9 7.282h3.017a1.691 1.691 0 001.677-1.321 1.651 1.651 0 00-1.616-1.978h-2.9a4.745 4.745 0 01-4.8-4.327 4.629 4.629 0 014.614-4.923l8.254-.017a.642.642 0 00.614-.46" transform="translate(32.06 5.384)" fill="#67bf1b"/></g><g id="Group_4005" data-name="Group 4005" transform="translate(88.691 6.59)"><path id="Path_8456" data-name="Path 8456" d="M-8.668 0H-11.7a1.679 1.679 0 00-1.66 1.3 1.651 1.651 0 001.611 2h2.919a4.733 4.733 0 014.775 4.3 4.63 4.63 0 01-4.613 4.942h-8.349a.529.529 0 00-.507.38l-.653 2.224a.541.541 0 00.519.693h8.78A8.1 8.1 0 00-.747 7.785 7.931 7.931 0 00-8.668 0" transform="translate(18.199)" fill="#67bf1b"/></g></g></g></svg>